<svg aria-hidden="true" style="position:absolute;width:0;height:0" xmlns="http://www.w3.org/2000/svg" overflow="hidden"><defs><symbol id="icon-home3" viewBox="0 0 32 32"><path d="M32 19l-6-6V4h-4v5l-6-6L0 19v1h4v10h10v-6h4v6h10V20h4z"/></symbol><symbol id="icon-book" viewBox="0 0 32 32"><path d="M28 4v26H7a3 3 0 1 1 0-6h19V0H6C3.8 0 2 1.8 2 4v24c0 2.2 1.8 4 4 4h24V4h-2z"/><path d="M7.002 26H7a1 1 0 0 0 0 2h18.999v-2H7.002z"/></symbol><symbol id="icon-alarm" viewBox="0 0 32 32"><path d="M16 4C8.268 4 2 10.268 2 18s6.268 14 14 14 14-6.268 14-14S23.732 4 16 4zm0 25.25C9.787 29.25 4.75 24.213 4.75 18S9.787 6.75 16 6.75 27.25 11.787 27.25 18 22.213 29.25 16 29.25zM29.212 8.974a6 6 0 0 0-9.959-6.643 16.011 16.011 0 0 1 9.96 6.643zM12.748 2.331a6 6 0 1 0-9.96 6.643 16.008 16.008 0 0 1 9.96-6.643z"/><path d="M16 18v-8h-2v10h8v-2z"/></symbol><symbol id="icon-display" viewBox="0 0 32 32"><path d="M0 2v20h32V2H0zm30 18H2V4h28v16zm-9 4H11l-1 4-2 2h16l-2-2z"/></symbol><symbol id="icon-checkbox-unchecked" viewBox="0 0 32 32"><path d="M28 0H4C1.8 0 0 1.8 0 4v24c0 2.2 1.8 4 4 4h24c2.2 0 4-1.8 4-4V4c0-2.2-1.8-4-4-4zm0 28H4V4h24v24z"/></symbol><symbol id="icon-stumbleupon2" viewBox="0 0 32 32"><path d="M26.625 0H5.375C2.419 0 0 2.419 0 5.375v21.25C0 29.581 2.419 32 5.375 32h21.25C29.581 32 32 29.581 32 26.625V5.375C32 2.419 29.581 0 26.625 0zM16 10c-1.103 0-2 .897-2 2v8c0 3.308-2.692 6-6 6s-6-2.692-6-6v-4h4v4c0 1.103.897 2 2 2s2-.897 2-2v-8c0-3.308 2.692-6 6-6s6 2.692 6 5.563v1.938l-2.563.75-1.438-.75v-1.938c0-.665-.897-1.563-2-1.563zm14 10c0 3.308-2.692 6-6 6s-6-2.692-6-6.438v-3.875l1.438.75 2.563-.75v3.875c0 1.54.897 2.438 2 2.438s2-.897 2-2v-4h4v4z"/></symbol></defs></svg>